<?xml version="1.0" encoding="utf-8"?>
<!-- Generator: Adobe Illustrator 19.1.0, SVG Export Plug-In . SVG Version: 6.00 Build 0)  -->
<svg version="1.1" id="Layer_1" xmlns="http://www.w3.org/2000/svg" xmlns:xlink="http://www.w3.org/1999/xlink" x="0px" y="0px"
	 viewBox="0 0 244 190" style="enable-background:new 0 0 244 190;" xml:space="preserve">
<style type="text/css">
	.st0{fill:#31302D;}
	.st1{fill:#FFFFFF;}
	.st2{fill:#F0DB4F;}
	.st3{fill:#575444;}
</style>
<g>
	<g>
		<circle class="st0" cx="95" cy="95" r="95"/>
		<path class="st1" d="M97,63.1v68.1l9.5-2.5c3.8-1,6.5-4.5,6.5-8.4V48l-10.3,5.6C99.2,55.5,97,59.2,97,63.1z M126.8,58.2
			c0.8,0.5,1.7,0.8,2.8,0.9c1.1,0.1,2.2,0,3.4-0.3c1.2-0.3,2.3-0.8,3.4-1.5c1.1-0.7,2-1.5,2.8-2.4c0.8-0.9,1.4-1.9,1.9-3
			c0.5-1.1,0.7-2.2,0.7-3.3c0-1.1-0.2-2-0.7-2.9c-0.5-0.8-1.1-1.5-1.9-2c-0.8-0.5-1.7-0.8-2.8-0.9c-1.1-0.1-2.2,0-3.4,0.3
			c-1.2,0.3-2.3,0.8-3.4,1.5c-1.1,0.7-2,1.5-2.8,2.4c-0.8,0.9-1.4,1.9-1.9,3c-0.4,1.1-0.7,2.2-0.7,3.2c0,1.1,0.2,2.1,0.7,2.9
			C125.4,57,126,57.7,126.8,58.2z M125,79.3v43.9l9.6-2.6c3.8-1,6.5-4.5,6.5-8.4V64.2l-10.4,5.6C127.2,71.7,125,75.4,125,79.3z
			 M81.2,109c-0.8,2.1-1.6,4.1-2.5,6c-0.9,1.9-1.9,3.6-3,5.2c-1.1,1.6-2.4,2.9-3.8,4c-1.4,1.1-2.9,1.9-4.6,2.4
			c-2.1,0.6-3.9,0.5-5.6-0.3c-1.7-0.8-3.1-2-4.3-3.7c-1.2-1.7-2.1-3.9-2.7-6.4c-0.6-2.4-0.9-4.9-1-7.7c0-2,0.3-3.9,0.7-5.8
			c0.5-2.1,1.2-4,2.2-5.7c1-1.7,2.1-3.2,3.5-4.4c1.3-1.2,2.9-2.1,4.5-2.5c1.2-0.3,2.2-0.4,2.9-0.2c0.7,0.2,1.2,0.7,1.5,1.2
			c0.3,0.6,0.5,1.3,0.6,2.1c0.1,0.8,0.1,1.6,0.1,2.4c0,0.8,0.2,1.5,0.5,2.2c0.3,0.7,0.8,1.2,1.4,1.6c0.6,0.4,1.4,0.7,2.3,0.8
			c0.9,0.1,2,0,3.2-0.4c1.1-0.3,2.2-0.8,3.2-1.4c1.1-0.6,2-1.4,2.8-2.2c0.8-0.8,1.5-1.7,2-2.7c0.5-0.9,0.8-1.8,0.8-2.7
			c0-0.2,0-0.4,0-0.5c0-0.2,0-0.3,0-0.5c0-1.9-0.5-3.5-1.5-4.8c-1-1.3-2.4-2.4-4.1-3.1c-1.8-0.7-4-1-6.5-1c-2.5,0-5.4,0.5-8.5,1.4
			c-3.7,1-7.2,2.8-10.5,5.2c-3.3,2.4-6.2,5.3-8.6,8.6c-2.4,3.3-4.4,6.9-5.8,10.8c-1.4,3.9-2.1,7.8-2.1,11.7c0,0.2,0,0.3,0,0.5
			c0,0.2,0,0.3,0,0.5c0,0.7,0.1,1.5,0.2,2.5c0.2,1.4,0.5,2.8,0.9,4.1c0.4,1.3,0.9,2.5,1.4,3.1c0,0,0,0,0,0c1.3,2.3,2.9,4.3,4.9,5.9
			c2.3,1.8,5,2.9,8.1,3.5c3.1,0.5,6.4,0.3,9.9-0.7c3.1-0.9,6.1-2.2,8.7-3.9c2.7-1.7,5.1-3.8,7.2-6.3c2.1-2.5,3.9-5.3,5.5-8.4
			c0.4-0.8,0.7-1.6,1.1-2.4C87.7,113.1,85.2,109,81.2,109z"/>
	</g>
	<g>
		<circle class="st2" cx="207" cy="95" r="37"/>
		<path class="st3" d="M198.9,99.4c0,2.6-1.7,4.4-4.3,4.4c-1.9,0-3.2-0.9-4.2-2l-2,3.2c1.8,1.8,4,2.6,6.5,2.6c4.7,0,8.2-2.6,8.2-8.2
			V82.8h-4.3V99.4z M212.7,89.2c0-1.8,1.6-3,4.1-3c2.6,0,5.1,0.9,7.1,2.8l2.4-3.2c-2.2-2.2-5.3-3.4-9.1-3.4c-5.4,0-8.9,3.1-8.9,7.1
			c0,8.9,14.1,5.8,14.1,10.9c0,1.6-1.3,3.4-4.9,3.4c-3.4,0-6.1-1.6-7.7-3.4l-2.4,3.3c2.2,2.3,5.4,3.9,9.9,3.9c6.5,0,9.4-3.5,9.4-7.5
			C226.8,91,212.7,93.8,212.7,89.2z"/>
	</g>
</g>
</svg>
