<?xml version="1.0" encoding="iso-8859-1"?>
<!-- Generator: Adobe Illustrator 16.0.0, SVG Export Plug-In . SVG Version: 6.00 Build 0)  -->
<!DOCTYPE svg PUBLIC "-//W3C//DTD SVG 1.1//EN" "http://www.w3.org/Graphics/SVG/1.1/DTD/svg11.dtd">
<svg version="1.1" id="Capa_1" xmlns="http://www.w3.org/2000/svg" xmlns:xlink="http://www.w3.org/1999/xlink" x="0px" y="0px"
	 width="334.983px" height="334.983px" viewBox="0 0 334.983 334.983" style="enable-background:new 0 0 334.983 334.983;"
	 xml:space="preserve">
<g>
	<g>
		<g>
			<g>
				<path d="M167.474,334.983L0.009,167.498l64.342-64.341c3.128-3.11,6.155-4.63,9.265-4.63c7.716,0,10.238,7.881,12.445,14.823
					c1.564,4.87,3.321,10.349,6.26,13.751l0.685,0.652c8.091,8.067,22.151,8.073,30.195,0.006c4.047-4.041,6.278-9.386,6.278-15.078
					c0-5.71-2.225-11.073-6.26-15.12l-0.646-0.634c-3.45-3.074-8.803-4.975-13.571-6.659c-6.56-2.317-12.769-4.513-14.147-10.613
					c-1.291-5.692,3.026-10.028,4.459-11.46L167.479,0l64.867,64.873c0.09,0.093,0.192,0.183,0.276,0.27
					c0.816-1.795,1.753-4.44,2.498-6.56c2.521-7.116,5.668-15.982,12.058-22.389l0.582-0.552
					c7.512-7.245,17.36-11.223,27.796-11.223c10.713,0,20.789,4.177,28.379,11.758c7.554,7.557,11.733,17.615,11.733,28.315
					c-0.018,9.758-3.459,18.981-9.823,26.28V90.9l-1.916,2.023c-6.425,6.438-15.673,9.4-23.089,11.793
					c-2.06,0.664-4.605,1.474-6.425,2.219l60.559,60.562l-65.44,65.464c-2.228,2.21-5.698,5.164-10.202,5.164l0,0
					c-8.299,0-11.055-8.587-13.703-16.892c-1.897-5.951-4.035-12.616-7.686-16.892l-0.997-0.919
					c-5.074-5.098-11.865-7.908-19.077-7.908c-7.194,0-13.974,2.811-19.077,7.908c-10.509,10.515-10.509,27.629,0,38.154
					c4.371,4.372,11.379,6.84,17.558,9.038c7.872,2.78,14.676,5.176,16.177,11.793c1.394,6.137-3.44,10.965-5.032,12.562
					L167.474,334.983z"/>
			</g>
		</g>
	</g>
</g>
<g>
</g>
<g>
</g>
<g>
</g>
<g>
</g>
<g>
</g>
<g>
</g>
<g>
</g>
<g>
</g>
<g>
</g>
<g>
</g>
<g>
</g>
<g>
</g>
<g>
</g>
<g>
</g>
<g>
</g>
</svg>
